<svg width="3001" height="476" viewBox="0 0 3001 476" fill="none" xmlns="http://www.w3.org/2000/svg">
<g clip-path="url(#clip0_9_5)">
<path d="M2748.11 0.438548C2806.1 -2.18035 2863.11 16.105 2908.75 51.9669C2957.51 90.6728 2988.83 147.207 2995.79 209.065C3004.09 280.235 2984.04 337.175 2940.43 392.471C2956.87 414.706 2982.48 444.387 3000.39 466.168H2894.64C2888.35 459.336 2881.86 451.778 2875.67 444.798C2861.28 452.257 2851.06 457.064 2835.47 462.493C2816.19 469.012 2798.71 473.056 2778.26 474.616C2713.89 479.876 2650.09 459.258 2600.98 417.329C2553.93 376.462 2525.05 318.58 2520.67 256.416C2511.06 124.17 2605.1 13.0621 2737.29 1.29206C2740.89 0.970064 2744.5 0.698548 2748.11 0.438548ZM2874.43 311.54C2920.67 213.276 2871.36 93.9898 2752.95 99.4405C2715.94 101.782 2684 113.013 2658.85 141.574C2610.7 196.242 2614.47 296.668 2670.14 345.021C2698.11 369.337 2734.6 378.3 2770.83 375.639C2783.4 374.766 2795.8 372.275 2807.73 368.232C2793.36 351.887 2770.62 327.702 2757.77 311.309C2741.21 292.576 2723.95 272.253 2707.11 254H2827.99L2874.43 311.54Z" fill="#345CFF"/>
<path d="M155.884 9.14219C227.276 9.12918 315.782 1.30728 360.603 70.5152C377.152 96.4411 382.798 127.852 376.312 157.919C369.31 190.234 351.055 209.923 324.162 227.319L326.086 228.254C392.238 260.859 412.916 333.408 380.474 398.23C375.433 407.498 369.083 415.99 361.618 423.445C310.367 474.888 228.165 466.173 161.335 466.17L0.304688 466.168L0.333008 9.1627L155.884 9.14219ZM249.29 279.748C231.811 277.119 213.166 278.085 195.453 278.094L106.229 278.168L106.16 372.832L197.188 372.938C220.1 372.948 255.454 376.802 273.044 359.816C299.79 332.498 288.555 285.654 249.29 279.748ZM236.244 103.298C222.561 100.607 202.703 101.883 188.389 101.893L106.167 102L106.165 193.163L185.585 193.263C212.158 193.288 238.29 197.595 259.648 179.121C283.922 151.53 274.595 110.842 236.244 103.298Z" fill="#345CFF"/>
<path d="M613.208 9.11714C638.574 9.11712 680.893 7.9281 705.077 10.747C719.234 12.301 733.118 15.7452 746.357 20.9882C784.387 35.8372 814.937 65.2272 831.237 102.658C847.567 139.7 848.478 181.718 833.758 219.428C818.088 259.213 789.727 285.306 751.067 302.212C760.757 318.195 776.258 339.755 786.968 355.68L861.168 466.168H736.529L639.361 316H561.134L561.137 466.168H454.1L454.158 9.16304L613.208 9.11714ZM693.146 107.836C680.006 104.852 651.151 105.899 636.1 105.94L561.136 106L561.134 221.49L636.222 221.574C667.384 221.598 696.14 225.727 721.476 204.196C743.797 181.472 745.738 146.268 722.532 123.609C714.353 115.777 704.193 110.324 693.146 107.836Z" fill="#345CFF"/>
<path d="M1394.05 9.16309H1482.06L1687.67 271.043L1687.68 9.16309H1796.12V465.757C1787.28 468.059 1720.47 466.189 1707.68 466.168C1701.61 457.471 1691.55 445.415 1684.82 436.84L1640.02 379.787L1502.27 204.392V466.168H1394.05V9.16309Z" fill="#345CFF"/>
<path d="M1185.6 9.16309C1192.16 25.1821 1198.79 44.5491 1204.86 60.9521L1241.7 160.556L1354.81 466.168H1243.08C1233.86 438.298 1221.48 406.867 1211.31 378.837H1017.98L986.118 466.168H874.298C889.398 429.8 905.538 382.031 919.448 344.444L999.458 128.139C1013.92 89.0088 1028.47 47.8469 1043.63 9.16309H1185.6ZM1073.62 225.971C1067.21 243.658 1059.55 266.95 1052.48 284H1176.6L1132.77 163.188C1129.93 155.346 1117.31 118.701 1114.41 113.673L1073.62 225.971Z" fill="#345CFF"/>
<path d="M1835.45 9.26111C1871.98 8.00011 1918.13 9.16612 1955.29 9.16312L2072.84 327.359C2085.69 290.215 2101.38 250.335 2115.15 213.268L2191.08 9.16312H2310.35L2270.89 110.471C2258.53 146.184 2239.5 191.046 2225.51 226.915L2132.29 466.168H2013.27C1999.66 428.151 1982.05 385.853 1967.25 347.908L1876.67 115.593C1863.44 81.6671 1847.41 43.2771 1835.45 9.26111Z" fill="#345CFF"/>
<path d="M2349.48 9.16309H2459.22V466.168H2349.48V9.16309Z" fill="#345CFF"/>
</g>
<defs>
<clipPath id="clip0_9_5">
<rect width="3001" height="476" fill="white"/>
</clipPath>
</defs>
</svg>
